# xmcd
#
# Track frame offsets: 
#        150
#        1112
#        43975
#        85633
#        103272
#        137042
#        144211
#        173670
#        194660
#
# Disc length: 2617 seconds
#
# Revision: 2
# Processed by: cddbd v1.5.2PL0 Copyright (c) Steve Scherf et al.
# Submitted via: ExactAudioCopyFreeDBPlugin 1.0
#
DISCID=720a3709
DTITLE=Miles Davis - Bitches Brew - 40th Anniversary Collector's Editi
DTITLE=on - CD3 - Tanglewood Live 1970
DYEAR=2010
DGENRE=Jazz
TTITLE0=Bill Graham Intro
TTITLE1=Directions
TTITLE2=Bitches Brew
TTITLE3=The Mask
TTITLE4=It’s About That Time
TTITLE5=Sanctuary
TTITLE6=Spanish Key-The Theme
TTITLE7=Miles Runs The Voodoo Down
TTITLE8=Bill Graham Outro
EXTD=YEAR: 1970
EXTT0=
EXTT1=
EXTT2=
EXTT3=
EXTT4=
EXTT5=
EXTT6=
EXTT7=
EXTT8=
PLAYORDER=
